# Blender 4.1.1
# www.blender.org
mtllib mountain.mtl
o Cylinder
v 0.000000 -0.000000 -1.000000
v 0.000000 0.100000 -1.000000
v 0.866025 -0.000000 -0.500000
v 0.866025 0.100000 -0.500000
v 0.866025 0.000000 0.500000
v 0.866025 0.100000 0.500000
v 0.000000 0.000000 1.000000
v 0.000000 0.100000 1.000000
v -0.866025 0.000000 0.500000
v -0.866025 0.100000 0.500000
v -0.866025 -0.000000 -0.500000
v -0.866025 0.100000 -0.500000
vn 0.5000 -0.0000 -0.8660
vn 1.0000 -0.0000 -0.0000
vn 0.5000 -0.0000 0.8660
vn -0.5000 -0.0000 0.8660
vn -0.0000 1.0000 -0.0000
vn -1.0000 -0.0000 -0.0000
vn -0.5000 -0.0000 -0.8660
vn -0.0000 -1.0000 -0.0000
vt 1.000000 1.000000
vt 0.833333 0.500000
vt 1.000000 0.500000
vt 0.833333 1.000000
vt 0.666667 0.500000
vt 0.666667 1.000000
vt 0.500000 0.500000
vt 0.500000 1.000000
vt 0.333333 0.500000
vt 0.250000 0.490000
vt 0.042154 0.130000
vt 0.457846 0.130000
vt 0.333333 1.000000
vt 0.166667 0.500000
vt 0.166667 1.000000
vt -0.000000 0.500000
vt 0.957846 0.370000
vt 0.750000 0.010000
vt 0.542154 0.370000
vt 0.457846 0.370000
vt 0.042154 0.370000
vt 0.250000 0.010000
vt -0.000000 1.000000
vt 0.750000 0.490000
vt 0.957846 0.130000
vt 0.542154 0.130000
s 0
f 2/1/1 3/2/1 1/3/1
f 4/4/2 5/5/2 3/2/2
f 6/6/3 7/7/3 5/5/3
f 8/8/4 9/9/4 7/7/4
f 2/10/5 10/11/5 6/12/5
f 10/13/6 11/14/6 9/9/6
f 12/15/7 1/16/7 11/14/7
f 3/17/8 7/18/8 11/19/8
f 2/1/1 4/4/1 3/2/1
f 4/4/2 6/6/2 5/5/2
f 6/6/3 8/8/3 7/7/3
f 8/8/4 10/13/4 9/9/4
f 6/12/5 4/20/5 2/10/5
f 2/10/5 12/21/5 10/11/5
f 10/11/5 8/22/5 6/12/5
f 10/13/6 12/15/6 11/14/6
f 12/15/7 2/23/7 1/16/7
f 11/19/8 1/24/8 3/17/8
f 3/17/8 5/25/8 7/18/8
f 7/18/8 9/26/8 11/19/8
o Mesh_0
v -0.331031 0.264923 -0.743546
v -0.429738 0.081254 -0.736431
v -0.239557 0.122321 -0.811417
v -0.435694 0.088742 -0.664880
v 0.029272 0.077445 -0.759430
v 0.140311 0.126250 -0.722277
v -0.101385 0.409079 -0.623507
v -0.016330 0.132226 -0.810555
v -0.544323 0.148346 -0.695379
v 0.383634 0.210726 -0.606953
v 0.317797 0.117296 -0.702046
v -0.339888 0.088398 -0.539020
v -0.091374 0.089021 -0.628133
v 0.048979 0.084042 -0.556017
v 0.009036 0.079031 -0.685898
v -0.547468 0.090328 -0.663099
v -0.214017 0.558999 -0.526268
v -0.255314 0.025829 -0.557890
v -0.237621 0.047547 -0.447482
v 0.832715 0.142095 -0.319399
v -0.054139 0.045023 -0.559987
v 0.454403 0.061995 -0.619341
v 0.687068 0.072903 -0.564423
v 0.792172 0.088742 -0.356084
v -0.272516 -0.007726 -0.501696
v -0.376310 0.064979 -0.426448
v -0.115109 0.590059 -0.449668
v -0.174520 0.808791 -0.351919
v 0.650524 0.092023 -0.053362
v 0.287995 0.043082 -0.253476
v 0.392369 0.489347 -0.430066
v -0.773615 0.147970 -0.286474
v -0.228027 0.066897 -0.261010
v 0.314750 0.837143 -0.221155
v -0.581469 0.125766 -0.534355
v -0.171101 0.067525 -0.537806
v 0.005163 0.064619 -0.365021
v 0.525393 0.067200 -0.373689
v 0.568084 0.286611 -0.436583
v -0.560625 0.081475 -0.311658
v -0.034132 0.820338 -0.299637
v 0.787573 0.146098 -0.072322
v -0.125454 0.938104 -0.216067
v 0.028414 1.256851 -0.061585
v 0.635185 0.462846 -0.225224
v -0.010517 -0.029088 -0.346546
v -0.124684 0.026982 0.005805
v -0.240779 0.005406 -0.096329
v -0.728535 0.189831 -0.170834
v 0.099513 0.029624 -0.273592
v -0.697007 0.096835 -0.195440
v -0.312161 0.602583 -0.346154
v 0.138482 1.045832 -0.146864
v 0.264824 1.003956 0.004711
v 0.187982 0.020803 -0.088237
v -0.613311 0.118048 -0.195684
v 0.647088 0.425911 0.189938
v 0.280797 0.996015 -0.193706
v -0.734805 0.202545 0.001500
v -0.269209 0.840100 -0.128355
v -0.321042 0.808948 0.003538
v 0.131498 1.237747 0.018497
v -0.066150 1.237338 -0.044977
v 0.250167 -0.030397 -0.032844
v 0.328605 0.040507 0.002592
v -0.745754 0.234179 -0.269039
v -0.063752 1.187592 0.117875
v -0.302871 0.881943 0.246420
v -0.493219 0.054817 0.045259
v -0.243202 -0.012221 0.184242
v -0.694823 0.309171 0.047010
v -0.441888 0.433143 -0.458574
v -0.058901 1.153326 0.234264
v -0.794137 0.165394 0.324059
v 0.011588 1.307323 0.053005
v 0.651117 0.116799 0.051701
v -0.483369 0.559496 0.034801
v -0.498364 0.071742 0.432220
v -0.677881 0.068574 0.220986
v -0.682842 0.104820 0.106040
v 0.698814 0.113497 0.299979
v 0.766133 0.155615 0.306672
v 0.805865 0.209401 0.083480
v 0.108801 0.045289 0.020886
v 0.204609 0.073679 0.335244
v -0.776976 0.121802 0.215874
v -0.784782 0.108524 0.362368
v -0.147973 0.044641 0.199043
v 0.336185 0.884736 0.212677
v 0.145528 1.109767 0.176795
v 0.369514 0.804002 0.349409
v -0.329480 0.052790 0.229822
v 0.033247 0.073822 0.382512
v -0.572453 0.416830 0.309424
v -0.690754 0.137515 0.428134
v -0.728306 0.053045 0.294409
v 0.509722 0.378320 0.514553
v -0.574966 0.072810 0.444737
v -0.317952 0.741391 0.403416
v 0.812968 0.099503 0.368750
v 0.660079 0.329271 0.505358
v 0.148405 0.044104 0.381245
v -0.696086 0.140053 0.489760
v -0.098598 0.115217 0.778089
v -0.636761 0.222953 0.522275
v -0.326768 0.434597 0.594418
v -0.061216 0.775143 0.506657
v 0.717682 0.176667 0.570547
v -0.505211 0.137829 0.722620
v -0.314720 0.117118 0.670659
v 0.445036 0.158852 0.716792
v -0.255517 0.200978 0.780805
v 0.452972 0.224651 0.733024
v -0.106809 0.214792 0.821346
v -0.020193 0.119574 0.700981
v 0.088982 0.414770 0.690984
vn -0.3299 0.2248 -0.9169
vn -0.0152 0.4217 -0.9066
vn -0.6736 -0.7193 -0.1699
vn -0.3586 -0.0419 -0.9325
vn 0.0675 0.5727 -0.8170
vn 0.2551 -0.9592 0.1216
vn 0.4413 -0.3879 -0.8092
vn 0.0422 -0.9158 -0.3994
vn -0.2222 -0.9693 0.1057
vn 0.0257 -0.8108 -0.5847
vn -0.0208 -0.4852 -0.8741
vn -0.4912 -0.8696 0.0501
vn 0.3654 -0.9230 0.1205
vn 0.1237 0.4197 -0.8992
vn 0.4122 0.5936 -0.6912
vn 0.0953 -0.9630 -0.2520
vn -0.0978 -0.9505 -0.2950
vn 0.5839 0.3393 -0.7376
vn -0.4883 0.6551 -0.5766
vn 0.2668 0.5887 -0.7631
vn 0.0217 -0.9804 -0.1957
vn 0.2177 0.1834 -0.9586
vn -0.2482 -0.8700 -0.4261
vn 0.2967 -0.7202 -0.6271
vn -0.0095 -0.9647 0.2630
vn -0.0255 -0.9689 0.2463
vn -0.1469 -0.8975 -0.4158
vn 0.0500 0.3497 -0.9355
vn -0.1138 -0.9392 -0.3240
vn 0.3224 -0.9445 -0.0627
vn -0.5746 -0.6132 -0.5421
vn -0.9690 -0.0779 -0.2345
vn -0.3799 -0.9000 -0.2138
vn 0.3066 0.2949 -0.9050
vn -0.2130 0.8029 -0.5568
vn -0.4054 0.2632 -0.8754
vn 0.4198 -0.9009 0.1099
vn 0.3080 0.6994 -0.6450
vn 0.3110 0.6705 -0.6735
vn 0.8616 -0.5062 -0.0385
vn 0.8415 -0.3667 -0.3967
vn -0.1528 -0.9565 -0.2484
vn 0.5751 0.6314 -0.5202
vn 0.3783 0.6212 -0.6863
vn 0.1041 -0.3691 0.9235
vn -0.0488 -0.9982 0.0352
vn 0.1641 0.6898 -0.7052
vn 0.0328 -0.9977 0.0593
vn -0.8153 0.3559 -0.4568
vn -0.6952 -0.6251 -0.3550
vn -0.5300 0.7117 -0.4610
vn -0.0852 0.9568 -0.2780
vn 0.1203 0.4321 -0.8938
vn 0.0675 -0.9940 -0.0856
vn -0.6674 0.6032 -0.4368
vn 0.0186 -0.7061 0.7079
vn 0.3234 -0.8695 -0.3732
vn -0.0758 -0.9914 0.1064
vn -0.4349 0.2663 -0.8602
vn 0.5818 0.5242 -0.6218
vn 0.3581 -0.9312 -0.0677
vn 0.2345 0.6027 -0.7627
vn 0.6243 -0.2504 -0.7400
vn -0.0328 -0.9935 -0.1086
vn -0.3112 -0.9372 -0.1573
vn 0.1115 -0.8842 -0.4535
vn -0.1078 -0.9883 0.1081
vn 0.1609 0.5344 -0.8298
vn -0.0135 -0.9809 -0.1938
vn -0.4520 -0.7900 0.4142
vn 0.3802 -0.9218 0.0761
vn -0.4057 -0.1110 -0.9072
vn 0.0806 -0.9967 -0.0022
vn 0.5687 0.5339 -0.6257
vn 0.5868 0.5092 -0.6297
vn -0.0119 -0.9999 -0.0047
vn -0.3153 -0.9157 -0.2490
vn 0.2050 0.2090 -0.9562
vn -0.7688 0.5021 -0.3960
vn 0.2278 -0.8942 0.3855
vn -0.6912 0.6840 -0.2333
vn -0.0257 0.9885 -0.1493
vn -0.0584 0.5902 -0.8051
vn -0.0825 -0.9606 0.2654
vn 0.0658 -0.9778 0.1987
vn -0.5774 0.1248 -0.8069
vn -0.1534 0.4900 -0.8581
vn 0.1856 0.4498 -0.8736
vn -0.1821 -0.9165 -0.3563
vn 0.8541 0.5196 0.0217
vn -0.2932 -0.9141 0.2802
vn -0.5866 0.8041 -0.0963
vn 0.4152 -0.8623 -0.2898
vn 0.0885 -0.9795 -0.1808
vn -0.8005 -0.3915 0.4538
vn -0.9300 0.2452 0.2738
vn -0.2505 0.5175 -0.8182
vn 0.4534 -0.8907 0.0331
vn 0.7370 -0.6600 0.1454
vn 0.9727 0.2204 -0.0722
vn 0.0800 -0.9931 -0.0855
vn 0.0625 -0.2354 0.9699
vn -0.8836 0.3931 -0.2544
vn 0.0047 -0.9733 0.2295
vn 0.7105 0.5487 -0.4406
vn -0.3892 -0.8519 -0.3504
vn -0.5596 0.8252 -0.0776
vn -0.7867 0.4165 -0.4557
vn -0.2202 -0.9737 0.0587
vn -0.8141 0.4909 -0.3103
vn -0.2569 -0.9585 -0.1235
vn 0.7593 0.6497 0.0360
vn 0.3270 0.9450 -0.0115
vn -0.5214 -0.8522 0.0439
vn -0.9275 -0.3738 -0.0062
vn 0.9348 0.3140 0.1657
vn -0.5771 0.8160 -0.0340
vn 0.6092 0.3882 -0.6915
vn -0.0456 -0.9657 0.2558
vn 0.8212 0.5615 -0.1022
vn 0.6946 -0.7098 -0.1173
vn -0.5265 -0.8493 0.0395
vn 0.4057 0.8569 -0.3179
vn -0.2536 0.8709 -0.4209
vn -0.5511 0.2055 0.8087
vn -0.0032 -0.9762 0.2167
vn -0.9438 0.3216 0.0758
vn 0.6672 0.6595 -0.3463
vn 0.3838 -0.8992 0.2099
vn -0.3709 -0.7632 -0.5291
vn 0.8220 0.5678 0.0434
vn -0.7248 0.6558 0.2110
vn -0.7798 0.5954 0.1934
vn 0.2368 -0.9704 -0.0473
vn 0.8242 0.5523 0.1252
vn -0.8604 0.5022 -0.0865
vn 0.8368 0.4597 0.2975
vn -0.1019 -0.9553 -0.2775
vn -0.9110 0.3938 -0.1222
vn -0.9438 0.2924 -0.1542
vn -0.7199 0.6572 0.2235
vn 0.5377 0.6783 0.5008
vn 0.4919 -0.8597 0.1378
vn 0.7484 0.6528 0.1174
vn -0.5786 -0.7192 -0.3847
vn -0.9833 0.0481 -0.1753
vn 0.2427 -0.9693 0.0381
vn -0.0560 0.5026 0.8627
vn 0.0714 -0.9925 0.0993
vn -0.4479 -0.8580 -0.2512
vn 0.2383 -0.9694 -0.0587
vn -0.8481 0.4933 0.1931
vn -0.0012 -0.9708 0.2397
vn -0.8397 0.5342 -0.0977
vn -0.4053 -0.7975 -0.4470
vn 0.9080 -0.4144 0.0618
vn 0.3621 -0.8844 -0.2945
vn -0.2430 -0.9692 0.0392
vn 0.5351 -0.8371 -0.1139
vn 0.8351 0.4822 0.2649
vn -0.5615 0.7995 0.2136
vn 0.2709 0.9264 0.2615
vn -0.4267 -0.8254 0.3695
vn -0.0606 -0.9972 0.0428
vn 0.1299 -0.4478 0.8846
vn 0.0335 -0.9916 0.1246
vn 0.0536 -0.9958 0.0736
vn -0.8662 0.4991 -0.0217
vn 0.0847 -0.9944 0.0640
vn -0.9755 -0.2082 -0.0708
vn 0.3962 -0.5122 -0.7620
vn 0.0595 -0.9880 0.1422
vn -0.7554 -0.6478 -0.0990
vn 0.3326 0.5498 0.7662
vn -0.0151 -0.9850 0.1716
vn 0.6307 -0.7237 0.2801
vn 0.4295 0.4853 0.7616
vn -0.1893 -0.7044 -0.6841
vn 0.1183 0.8674 0.4833
vn -0.5223 0.5005 0.6904
vn -0.0035 -0.9895 0.1445
vn -0.2142 -0.8506 0.4802
vn -0.7791 0.5024 0.3749
vn -0.3157 -0.9060 0.2819
vn -0.1362 -0.8199 0.5561
vn 0.8522 0.1602 -0.4981
vn 0.8101 0.4239 0.4050
vn 0.0907 -0.9826 0.1622
vn -0.1476 -0.4853 -0.8618
vn -0.6062 0.3733 0.7022
vn -0.7103 0.3866 0.5882
vn -0.4871 -0.8733 -0.0062
vn -0.1363 -0.9904 0.0248
vn 0.8576 0.5005 0.1180
vn 0.3136 0.9114 0.2663
vn -0.5725 0.6848 0.4508
vn 0.2610 0.5236 0.8110
vn 0.4228 -0.9039 -0.0646
vn -0.7192 -0.2569 0.6456
vn -0.3392 0.7168 0.6092
vn -0.7920 0.6034 -0.0934
vn 0.2259 -0.9582 0.1756
vn 0.0779 -0.9849 0.1546
vn 0.8680 0.4321 0.2446
vn -0.0519 -0.9949 0.0868
vn 0.1459 -0.3554 0.9233
vn -0.3792 0.4969 0.7806
vn -0.2648 -0.9416 0.2080
vn 0.2811 0.7491 0.5999
vn 0.5181 0.4939 0.6983
vn -0.0457 -0.9743 0.2206
vn -0.7388 0.2901 0.6083
vn 0.3151 0.7358 0.5994
vn 0.3793 0.4406 0.8136
vn -0.1917 0.3824 0.9039
vn 0.3021 -0.8341 0.4616
vn 0.4692 -0.2644 0.8426
vn -0.5405 0.5859 0.6038
vn -0.3431 -0.6493 0.6788
vn 0.0431 -0.7682 0.6388
vn 0.0700 -0.8115 0.5802
vn -0.3173 0.5304 0.7861
vn 0.1551 -0.2542 0.9546
vn 0.6873 -0.2410 0.6852
vn 0.1317 0.4477 0.8845
vn -0.1456 0.6364 0.7575
vn -0.2055 -0.4041 0.8913
vn -0.2668 0.5500 0.7914
vt 0.494127 0.774557
vt 0.523180 0.691722
vt 0.460089 0.730394
vt 0.451975 0.822731
vt 0.090203 0.284477
vt 0.056110 0.270489
vt 0.072644 0.284172
vt 0.532364 0.729608
vt 0.368293 0.747704
vt 0.074872 0.219531
vt 0.129590 0.183925
vt 0.110466 0.182244
vt 0.064215 0.311408
vt 0.121125 0.303429
vt 0.050188 0.356608
vt 0.064350 0.399915
vt 0.141448 0.159628
vt 0.123757 0.153078
vt 0.380987 0.896275
vt 0.412718 0.856229
vt 0.112041 0.265554
vt 0.330114 0.890943
vt 0.358439 0.938891
vt 0.400629 0.653751
vt 0.303198 0.983666
vt 0.143915 0.255110
vt 0.128773 0.278827
vt 0.177886 0.160856
vt 0.157538 0.216443
vt 0.578330 0.454436
vt 0.632739 0.454436
vt 0.608538 0.472822
vt 0.459520 0.932406
vt 0.455585 0.916253
vt 0.429174 0.939995
vt 0.281895 0.598321
vt 0.334428 0.598321
vt 0.320696 0.615907
vt 0.502345 0.032403
vt 0.457402 0.060463
vt 0.414397 0.140753
vt 0.248074 0.911728
vt 0.228172 0.829953
vt 0.335000 0.696264
vt 0.487513 0.941247
vt 0.484277 0.910208
vt 0.298045 0.702670
vt 0.055999 0.463071
vt 0.108546 0.527753
vt 0.105319 0.505763
vt 0.190483 0.217119
vt 0.211830 0.999600
vt 0.127455 0.437595
vt 0.523691 0.572529
vt 0.490271 0.572271
vt 0.167916 0.248255
vt 0.321011 0.646508
vt 0.237016 0.650093
vt 0.177067 0.305510
vt 0.460084 0.876499
vt 0.208135 0.494638
vt 0.189385 0.384227
vt 0.153506 0.888461
vt 0.187827 0.531654
vt 0.197565 0.666645
vt 0.791276 0.968621
vt 0.758025 0.939648
vt 0.747815 0.970024
vt 0.386397 0.080061
vt 0.199985 0.334611
vt 0.529121 0.876499
vt 0.118511 0.738865
vt 0.327601 0.000400
vt 0.397489 0.015542
vt 0.674953 0.939648
vt 0.564259 0.938279
vt 0.372233 0.129113
vt 0.075466 0.698761
vt 0.231136 0.591436
vt 0.357065 0.107694
vt 0.675810 0.255429
vt 0.740670 0.301759
vt 0.752906 0.165910
vt 0.076863 0.652535
vt 0.173829 0.617598
vt 0.035885 0.576499
vt 0.276717 0.020416
vt 0.999531 0.751799
vt 0.859472 0.766445
vt 0.861720 0.877260
vt 0.186241 0.295382
vt 0.289687 0.357556
vt 0.243852 0.242598
vt 0.875111 0.281945
vt 0.871635 0.194321
vt 0.233979 0.000400
vt 0.312138 0.294580
vt 0.963477 0.029177
vt 0.987952 0.000400
vt 0.945983 0.000400
vt 0.998593 0.028695
vt 0.057709 0.556049
vt 0.683109 0.751799
vt 0.620033 0.755237
vt 0.657049 0.865610
vt 0.247262 0.370351
vt 0.921670 0.011885
vt 0.646452 0.144066
vt 0.615657 0.172591
vt 0.239462 0.506764
vt 0.018906 0.682442
vt 0.966698 0.509592
vt 0.966698 0.445643
vt 0.940432 0.462657
vt 0.838976 0.115033
vt 0.254447 0.551958
vt 0.268964 0.099687
vt 0.322097 0.169336
vt 0.369376 0.146611
vt 0.404899 0.150272
vt 0.985323 0.816467
vt 0.551184 0.180787
vt 0.000469 0.596410
vt 0.116792 0.874900
vt 0.042683 0.882356
vt 0.116792 0.908473
vt 0.004749 0.551958
vt 0.147443 0.051559
vt 0.116792 0.030775
vt 0.170263 0.030775
vt 0.260306 0.415011
vt 0.908881 0.216275
vt 0.959717 0.854836
vt 0.272565 0.157075
vt 0.610111 0.807144
vt 0.962008 0.292360
vt 0.936173 0.448973
vt 0.917366 0.322014
vt 0.919136 0.271383
vt 0.685169 0.904054
vt 0.466698 0.105100
vt 0.644553 0.075540
vt 0.508551 0.801313
vt 0.550402 0.850381
vt 0.192827 0.049004
vt 0.955834 0.140442
vt 0.895856 0.346620
vt 0.462007 0.814823
vt 0.374415 0.304365
vt 0.373125 0.270662
vt 0.255389 0.189292
vt 0.961884 0.171459
vt 0.297502 0.562187
vt 0.836579 0.321128
vt 0.239674 0.165949
vt 0.310013 0.541693
vt 0.928701 0.075540
vt 0.230653 0.180247
vt 0.970871 0.913697
vt 0.492133 0.236169
vt 0.453952 0.165993
vt 0.417128 0.153078
vt 0.374223 0.199110
vt 0.191839 0.083808
vt 0.409879 0.260632
vt 0.374618 0.413095
vt 0.410550 0.372382
vt 0.978893 0.133649
vt 0.319981 0.577538
vt 0.542876 0.310775
vt 0.222601 0.198641
vt 0.821477 0.469968
vt 0.196684 0.188744
vt 0.737417 0.354014
vt 0.395511 0.402254
vt 0.708333 0.392788
vt 0.464633 0.513780
vt 0.962008 0.618003
vt 0.899191 0.501529
vt 0.522888 0.183388
vt 0.995726 0.931424
vt 0.844458 0.971452
vt 0.506447 0.219138
vt 0.965216 0.101830
vt 0.844150 0.603991
vt 0.542217 0.190380
vt 0.893580 0.962676
vt 0.918494 0.696055
vt 0.712773 0.567865
vt 0.965957 0.085342
vt 0.512897 0.391015
vt 0.545577 0.378590
vt 0.952953 0.983613
vt 0.582743 0.265739
vt 0.575715 0.580490
vt 0.535568 0.499553
vt 0.587162 0.503969
vt 0.490150 0.539022
vt 0.841765 0.718995
vt 0.935270 0.725420
vt 0.396434 0.575467
vt 0.561664 0.598618
vt 0.583959 0.338958
vt 0.573043 0.387601
vt 0.773642 0.676325
vt 0.729115 0.658824
vt 0.716460 0.692444
vt 0.681457 0.689998
s 0
usemtl Material_0.002
f 15/27/9 21/28/9 13/29/9
f 13/29/10 20/30/10 15/27/10
f 27/31/11 20/32/11 17/33/11
f 14/34/12 21/28/12 15/27/12
f 20/30/13 13/29/13 19/35/13
f 15/36/14 16/37/14 14/38/14
f 17/33/15 20/32/15 18/39/15
f 20/32/16 27/31/16 15/36/16
f 15/36/17 27/31/17 26/40/17
f 18/39/18 23/41/18 34/42/18
f 16/37/19 28/43/19 21/44/19
f 14/38/20 16/37/20 21/44/20
f 17/33/21 18/39/21 27/31/21
f 23/45/22 18/46/22 19/35/22
f 19/35/23 18/46/23 20/30/23
f 26/40/24 25/47/24 15/36/24
f 34/42/25 26/40/25 18/39/25
f 22/48/26 34/49/26 23/45/26
f 84/50/27 13/29/27 21/28/27
f 22/48/28 23/45/28 19/35/28
f 15/36/29 25/47/29 16/37/29
f 34/49/30 22/48/30 35/51/30
f 48/52/31 25/47/31 33/53/31
f 26/40/32 33/53/32 25/47/32
f 16/37/33 47/54/33 28/43/33
f 25/47/34 47/54/34 16/37/34
f 47/54/35 25/47/35 24/55/35
f 24/56/36 48/57/36 30/58/36
f 24/55/37 25/47/37 48/52/37
f 26/40/38 27/31/38 18/39/38
f 30/59/39 37/60/39 24/61/39
f 47/62/40 21/63/40 28/64/40
f 21/65/41 47/66/41 44/67/41
f 51/68/42 19/35/42 43/69/42
f 19/35/43 13/29/43 84/50/43
f 19/35/44 84/50/44 29/70/44
f 30/59/45 48/71/45 31/72/45
f 19/35/46 51/68/46 22/48/46
f 29/70/47 39/73/47 19/35/47
f 30/59/48 31/72/48 37/60/48
f 35/74/49 32/75/49 36/76/49
f 24/55/50 38/77/50 47/54/50
f 35/51/51 51/68/51 32/78/51
f 22/48/52 51/68/52 35/51/52
f 48/52/53 33/53/53 26/40/53
f 26/40/54 34/42/54 50/79/54
f 39/73/55 43/69/55 19/35/55
f 34/42/56 35/74/56 36/76/56
f 21/28/57 44/80/57 78/81/57
f 24/55/58 37/82/58 38/77/58
f 84/50/59 64/83/59 29/70/59
f 64/83/60 39/73/60 29/70/60
f 40/84/61 43/69/61 39/73/61
f 48/52/62 26/40/62 49/85/62
f 78/81/63 84/50/63 21/28/63
f 31/72/64 38/86/64 37/60/64
f 41/87/65 42/88/65 26/40/65
f 50/79/66 41/87/66 26/40/66
f 39/73/67 64/83/67 40/84/67
f 57/89/68 51/68/68 43/69/68
f 50/79/69 54/90/69 41/87/69
f 40/84/70 53/91/70 43/69/70
f 62/92/71 58/93/71 49/94/71
f 26/40/72 42/88/72 49/85/72
f 52/95/73 44/67/73 47/66/73
f 49/85/74 42/88/74 62/96/74
f 31/72/75 45/97/75 38/86/75
f 46/98/76 43/69/76 53/91/76
f 45/99/77 52/95/77 47/66/77
f 38/100/78 45/99/78 47/66/78
f 48/71/79 45/97/79 31/72/79
f 45/101/80 49/94/80 58/93/80
f 50/79/81 34/42/81 36/76/81
f 32/78/82 51/68/82 57/89/82
f 57/89/83 43/69/83 46/98/83
f 49/102/84 45/97/84 48/71/84
f 52/95/85 63/103/85 44/67/85
f 46/98/86 53/91/86 70/104/86
f 40/84/87 64/83/87 72/105/87
f 68/106/88 63/103/88 52/95/88
f 64/107/89 84/108/89 89/109/89
f 40/84/90 72/105/90 53/91/90
f 70/104/91 53/91/91 65/110/91
f 45/99/92 68/106/92 52/95/92
f 36/76/93 54/90/93 50/79/93
f 55/111/94 53/91/94 72/105/94
f 56/112/95 53/91/95 55/111/95
f 65/110/96 53/91/96 56/112/96
f 45/99/97 60/113/97 68/106/97
f 32/114/98 57/115/98 69/116/98
f 58/117/99 96/118/99 45/119/99
f 84/108/100 78/120/100 83/121/100
f 59/122/101 60/113/101 45/99/101
f 96/118/102 59/123/102 45/119/102
f 61/124/103 44/125/103 63/126/103
f 44/125/104 61/124/104 78/127/104
f 56/112/105 55/111/105 75/128/105
f 62/96/106 96/118/106 58/117/106
f 54/90/107 36/76/107 32/75/107
f 46/129/108 70/130/108 101/131/108
f 67/132/109 62/96/109 42/88/109
f 61/124/110 63/126/110 68/133/110
f 73/134/111 72/135/111 64/107/111
f 42/88/112 41/87/112 88/136/112
f 65/110/113 56/112/113 66/137/113
f 42/138/114 76/139/114 67/140/114
f 84/108/115 83/121/115 106/141/115
f 75/128/116 55/111/116 73/142/116
f 67/132/117 96/118/117 62/96/117
f 73/134/118 64/107/118 89/109/118
f 60/113/119 81/143/119 68/106/119
f 46/129/120 69/116/120 57/115/120
f 65/110/121 66/137/121 70/104/121
f 71/144/122 61/145/122 68/106/122
f 71/144/123 78/146/123 61/145/123
f 32/114/124 69/116/124 54/147/124
f 55/148/125 72/135/125 73/134/125
f 74/149/126 66/137/126 56/112/126
f 59/122/127 81/143/127 60/113/127
f 69/116/128 46/129/128 101/131/128
f 76/150/129 42/151/129 77/152/129
f 68/106/130 81/143/130 71/144/130
f 87/153/131 74/149/131 56/112/131
f 87/153/132 56/112/132 75/128/132
f 76/154/133 77/155/133 67/156/133
f 67/132/134 77/157/134 96/118/134
f 78/120/135 71/158/135 83/121/135
f 54/147/136 69/116/136 95/159/136
f 88/136/137 41/87/137 54/90/137
f 71/144/138 81/143/138 92/160/138
f 70/130/139 66/161/139 101/131/139
f 75/162/140 80/163/140 79/164/140
f 79/164/141 87/165/141 75/162/141
f 42/88/142 88/136/142 77/157/142
f 69/116/143 101/131/143 103/166/143
f 75/167/144 73/134/144 80/168/144
f 66/161/145 74/169/145 102/170/145
f 81/143/146 59/122/146 82/171/146
f 71/158/147 86/172/147 83/121/147
f 84/108/148 106/141/148 89/109/148
f 80/163/149 85/173/149 79/164/149
f 102/170/150 74/169/150 87/174/150
f 59/123/151 100/175/151 82/176/151
f 102/170/152 101/131/152 66/161/152
f 92/160/153 98/177/153 71/144/153
f 98/178/154 86/172/154 71/158/154
f 54/90/155 94/179/155 88/136/155
f 79/164/156 102/180/156 87/165/156
f 59/123/157 96/118/157 100/175/157
f 98/177/158 92/160/158 91/181/158
f 77/157/159 88/136/159 93/182/159
f 117/183/160 106/141/160 83/121/160
f 96/118/161 77/157/161 93/182/161
f 73/134/162 89/109/162 80/168/162
f 98/177/163 91/181/163 108/184/163
f 95/159/164 94/185/164 54/147/164
f 90/186/165 91/187/165 92/188/165
f 90/186/166 92/188/166 81/189/166
f 93/182/167 88/136/167 94/179/167
f 94/185/168 95/159/168 69/116/168
f 117/183/169 83/121/169 86/172/169
f 102/180/170 79/164/170 85/173/170
f 81/143/171 82/171/171 104/190/171
f 104/191/172 90/186/172 81/189/172
f 104/191/173 82/176/173 100/175/173
f 100/175/174 97/192/174 105/193/174
f 100/175/175 96/118/175 97/192/175
f 80/168/176 89/109/176 106/141/176
f 97/192/177 96/118/177 93/182/177
f 99/194/178 86/172/178 98/178/178
f 94/179/179 112/195/179 93/182/179
f 90/186/180 104/191/180 122/196/180
f 99/197/181 98/177/181 108/184/181
f 119/198/182 102/180/182 85/173/182
f 104/191/183 100/175/183 105/193/183
f 108/184/184 91/181/184 107/199/184
f 119/198/185 101/200/185 102/180/185
f 97/192/186 114/201/186 105/193/186
f 103/202/187 101/200/187 119/198/187
f 85/173/188 80/163/188 119/198/188
f 122/196/189 104/191/189 105/193/189
f 123/203/190 105/193/190 114/201/190
f 80/163/191 106/204/191 111/205/191
f 90/186/192 107/206/192 91/187/192
f 107/199/193 99/197/193 108/184/193
f 94/185/194 69/116/194 112/207/194
f 109/208/195 69/116/195 103/166/195
f 97/192/196 93/182/196 123/203/196
f 90/186/197 110/209/197 107/206/197
f 99/194/198 107/210/198 86/172/198
f 106/204/199 118/211/199 111/205/199
f 107/206/200 110/209/200 115/212/200
f 123/203/201 93/182/201 112/195/201
f 69/116/202 113/213/202 112/207/202
f 69/116/203 109/208/203 113/213/203
f 117/214/204 118/211/204 106/204/204
f 103/202/205 119/198/205 128/215/205
f 123/203/206 114/201/206 97/192/206
f 86/172/207 107/210/207 117/183/207
f 111/205/208 119/198/208 80/163/208
f 107/210/209 115/216/209 117/183/209
f 105/193/210 127/217/210 116/218/210
f 105/193/211 123/203/211 127/217/211
f 113/213/212 120/219/212 112/207/212
f 122/196/213 105/193/213 116/218/213
f 110/209/214 90/186/214 115/212/214
f 118/211/215 119/198/215 111/205/215
f 121/220/216 115/212/216 90/186/216
f 125/221/217 113/222/217 109/223/217
f 113/222/218 125/221/218 120/224/218
f 121/220/219 90/186/219 122/196/219
f 121/225/220 117/214/220 115/226/220
f 128/215/221 125/221/221 109/223/221
f 103/202/222 128/215/222 109/223/222
f 118/211/223 128/215/223 119/198/223
f 120/227/224 123/203/224 112/195/224
f 120/224/225 125/221/225 123/228/225
f 118/211/226 117/214/226 121/225/226
f 122/196/227 116/218/227 124/229/227
f 123/203/228 126/230/228 127/217/228
f 122/196/229 124/229/229 121/220/229
f 124/231/230 118/211/230 121/225/230
f 123/228/231 125/221/231 126/232/231
f 116/233/232 127/234/232 126/232/232
f 125/221/233 128/215/233 126/232/233
f 118/211/234 126/232/234 128/215/234
f 124/231/235 116/233/235 126/232/235
f 118/211/236 124/231/236 126/232/236
